<svg xmlns="http://www.w3.org/2000/svg" viewBox="0 0 428.93 109.79"><defs><style>.cls-1{fill:#a48454;fill-rule:evenodd;}.cls-2{fill:#342c1c;}</style></defs><g id="Layer_2" data-name="Layer 2"><g id="svg"><g id="svgg"><path id="path0" class="cls-1" d="M339.52,38.78A8.15,8.15,0,0,0,336,41.42a2.27,2.27,0,0,1-.7.9c-.56.19-1.09,3.12-1.1,6.08v3h-5l.08,3.23.08,3.24,2.4.08,2.41.08V77l3.65-.08,3.64-.07.07-9.42.07-9.41,3.78-.08,3.78-.07.08-3.24.08-3.23h-7.72V49.12c0-2.79,2.09-5.21,3.38-3.92a15.56,15.56,0,0,0,3.41,1.19,5.75,5.75,0,0,0,1.36-2.12A15.72,15.72,0,0,1,351,42c2.88-1.94-7.44-4.85-11.44-3.22M139.68,58.52V77l10.79-.09c9.63-.08,10.89-.14,11.62-.57a3.67,3.67,0,0,1,1.18-.47c1.58,0,5.56-3.63,5.56-5a.58.58,0,0,1,.34-.52c.72-.24.64-6-.1-7.55s-3.09-4-4-4.34l-.64-.2.78-.48c4.16-2.53,5-10.35,1.51-14-3.09-3.2-5.39-3.68-17.63-3.68h-9.36V58.52m127.91,0V77l10.69-.09c6.83,0,10.82-.19,11.07-.37a10.31,10.31,0,0,1,2-.8,11.75,11.75,0,0,0,4.82-3.83c1.2-1.54,1.59-7.56.6-9.27-1.48-2.53-1.76-2.82-4.25-4.31C292,58,292,58,292.39,58c3.13,0,5.38-7.88,3.44-12-2.37-5-5.36-5.92-19.05-5.92h-9.19V58.52M157.28,47.19c0,.13.36.31.8.4,2.06.41,3.1,2.89,2.16,5.15-.46,1.1-2.27,1.92-4.27,1.92-.64,0-1.16.12-1.16.27s-1.43.27-3.72.27h-3.71V47h5a26.1,26.1,0,0,1,4.95.24m127.76,0a2.14,2.14,0,0,0,1,.43c1.9.42,2.75,2.87,1.8,5.15-.46,1.11-2.05,1.86-3.94,1.86-.64,0-1.16.13-1.16.28s-1.42.27-3.72.27h-3.71V47h4.8a25.51,25.51,0,0,1,5,.26m-102.79,4c-3.07,1.12-5.38,2.9-6.46,5a4.92,4.92,0,0,1-.62,1c-1,.74-1.75,7.63-1.11,10.81,1.63,8.08,11.85,12.19,20.43,8.22,3.8-1.76,4-2.35,2-4.71-2.38-2.75-2.23-2.71-5-1.37-4.56,2.22-10,.41-10-3.32,0-.17,3.2-.3,8.87-.34l8.87-.08.08-1.62c.1-1.89-.4-5.49-.78-5.62a.51.51,0,0,1-.26-.46c0-2.35-4.84-7.25-7.2-7.28a.62.62,0,0,1-.57-.35c-.24-.71-6.15-.58-8.25.18m30-.48c-.42.07-.76.24-.76.39s-.15.25-.34.26c-1.58,0-5.1,2.81-6.16,4.9a6,6,0,0,1-.71,1.16c-1.11.83-1.71,7.93-.92,10.93.71,2.73,3.25,6.31,5.21,7.36,3,1.62,3,1.62,5.78,1.73,3.4.14,5.17-.24,6.92-1.49l1.36-1,.09,1,.08,1h6.85V51.35h-6.88v1c0,1.1-.25,1.2-1,.39-1.48-1.63-6.06-2.59-9.54-2m34.18.47a11.06,11.06,0,0,0-2.31,1.38c-1,.91-1,.91-1-.24v-1h-6.88V77l3.64-.08,3.65-.07.14-8.12c.17-10.22.53-11,4.88-11,3.87,0,4.3,1.06,4.47,11.18l.14,8,3.64.07,3.65.08v-9c0-9.92-.17-11.34-1.6-13.28-.86-1.16-3-3-3.45-3a3.81,3.81,0,0,1-1.14-.46c-1.47-.81-6-.8-7.84,0m64.23-.27c-.45.21-1.43.61-2.17.88-6.12,2.23-9,11.89-5.68,19,.93,2,3.4,4.61,4.79,5.11.55.2,1,.45,1,.55,0,.63,3.68,1.14,7.35,1,5.5-.18,11.11-2.89,9.5-4.59-.27-.28-1.15-1.27-2-2.2-1.35-1.54-2.25-2.05-2.61-1.47a9,9,0,0,1-1.74,1c-3.49,1.77-7.75.89-9.36-1.95-1.05-1.87-1.51-1.76,8.25-1.84l8.87-.08V63.87c0-2.6-.55-5.74-1.08-6.28a5,5,0,0,1-.67-1.21c-.64-1.56-3.62-4.18-5.39-4.75a6,6,0,0,1-1.49-.66c-.62-.49-6.59-.54-7.59-.06m51-.2c-.42.07-.76.22-.76.33a2.88,2.88,0,0,1-1.24.56,12.07,12.07,0,0,0-5.91,4.59,15.38,15.38,0,0,1-.88,1.49c-1.65,2.38-1.68,11.7,0,12.9a3.57,3.57,0,0,1,.63.94c1.09,2.11,4.5,4.73,7.19,5.53s10.34.37,11-.65a4,4,0,0,1,1.16-.65c2.43-1,5.5-5.15,6.26-8.45.54-2.35.18-7.68-.54-7.92a.54.54,0,0,1-.27-.5,9.79,9.79,0,0,0-1.53-3.13c-1.59-1.8-2-2.2-2.27-2.2a.75.75,0,0,1-.52-.39,9.7,9.7,0,0,0-3.67-1.8,1.38,1.38,0,0,1-.76-.34c-.33-.34-6.29-.57-7.82-.31m33.35,0a1.78,1.78,0,0,0-.82.31,9.08,9.08,0,0,1-1.43.8,4.26,4.26,0,0,0-1.42,1c-.07.18-.14-.07-.16-.56l0-.9H384V76.94h7.4l.08-8.07.08-8.07.77-1.11c1.24-1.79,3.22-2.33,6.38-1.74,2.22.42,2.08.56,2.52-2.54.58-4.1.53-4.51-.48-4.71a28.37,28.37,0,0,0-5.75,0m18.43,0c-5.53,2-8.58,5-9.23,9.13-.11.64-.28,1.16-.4,1.16a12.35,12.35,0,0,0-.25,3.16c0,1.87.06,3.17.22,3.17s.35.52.46,1.15a9.4,9.4,0,0,0,1.69,4l.95,1a9.89,9.89,0,0,0,2.87,2.32,1.48,1.48,0,0,1,.81.45c1.74,1.74,10.47,1.61,14-.22,4-2,4-2.19,1.49-5-2.08-2.28-2.37-2.42-3.51-1.62-2.21,1.57-7.18,2.36-8,1.27a3.61,3.61,0,0,0-1-.67,3.32,3.32,0,0,1-1.21-1.23,5.53,5.53,0,0,0-.8-1.19c-1.11-1.11-.79-1.16,8.49-1.23l8.88-.08V63.87c0-5.87-2.71-10.71-6.73-12.13A15,15,0,0,1,420.4,51a28.17,28.17,0,0,0-7-.3M188.9,57.61a6,6,0,0,1,2.64,3.16l.19.76h-5.12c-5.69,0-5.48.09-4.49-1.91a5.27,5.27,0,0,1,6.78-2M317,57.84a4,4,0,0,1,1.73,1.86c.87,1.91,1.07,1.83-4.55,1.83s-5.41,0-4.57-1.59a5.18,5.18,0,0,1,7.39-2.1m102-.08a4.3,4.3,0,0,1,1.65,1.71,4.56,4.56,0,0,0,.76,1.19.58.58,0,0,1,.21.48c0,.32-.91.39-5.23.39-5.45,0-5.9-.11-4.85-1.16a2.59,2.59,0,0,0,.55-.94c.66-2.06,4.56-3,6.91-1.67m-199.37.58A4.6,4.6,0,0,1,221,59.49a12.6,12.6,0,0,0,.85,1c1.1,1.13,1.2,6.77.11,6.77-.11,0-.35.36-.54.81-.65,1.56-5.28,3.51-5.92,2.49a.79.79,0,0,0-.61-.28c-2.84,0-5.11-5-3.94-8.66a6.05,6.05,0,0,1,8.74-3.33M368,58.15c5.36,2.53,4.28,12.18-1.36,12.18-.29,0-.52.13-.52.28s-.37.27-.83.27-.82-.1-.82-.24-.42-.3-.93-.39c-2-.32-4.3-2.82-4.3-4.65,0-.27-.12-.49-.27-.49-.33,0-.37-1.71-.05-2.08a5.42,5.42,0,0,0,.56-1.41c.9-3.19,5.31-5,8.52-3.47M159.34,62.5A3.62,3.62,0,0,1,160.88,68c-1.14,1.65-2,1.86-8.21,2l-5.29.14V61.75l5.43.1c4.74.09,5.57.17,6.53.65m127.51-.1c3.16,1.42,3.34,5.56.29,6.92-1.08.48-2,.58-6.55.68l-5.3.13V61.75l5.3.11c4,.09,5.52.22,6.26.54"/><path class="cls-2" d="M40.13,17.07a3,3,0,0,1,.56,1.06,5,5,0,0,0,.86,1.49,1.85,1.85,0,0,1,.47.61A5.4,5.4,0,0,0,43.31,22a3,3,0,0,1,.67.87,4.38,4.38,0,0,0,.69,1,6.28,6.28,0,0,1,.84,1.5,4.76,4.76,0,0,0,.71,1.28c.34.22.31,3.92,0,4a.38.38,0,0,0-.26.34,9.56,9.56,0,0,1-1.47,2.82,6.84,6.84,0,0,0-1.21,2.69c0,.21-.1.39-.21.39s-.21.27-.21.62.1.61.21.61.21.17.21.37c0,1,.6,1.34,1.88,1.23S46.67,39.41,48,38a7.7,7.7,0,0,0,1.83-2.47,6.62,6.62,0,0,1,.66-1.15c1.17-.87,1.17-10.65,0-11.53a7.84,7.84,0,0,1-.71-1.29,4,4,0,0,0-.73-1.19c-.08,0-.28-.27-.42-.6a6.92,6.92,0,0,0-1-1.44,17,17,0,0,1-2.44-3,3.36,3.36,0,0,0-.45-.7c-1-.71-1-6.39,0-6.39.09,0,.31-.37.49-.83a4.64,4.64,0,0,1,.69-1.2,8.23,8.23,0,0,0,1.21-1.87,2.36,2.36,0,0,1,.51-.65,1.8,1.8,0,0,0,.28-1.08c0-1.88-2.26-2.9-4.14-1.85a7.74,7.74,0,0,0-3.08,3.33,4.26,4.26,0,0,1-.59,1C38.65,6.45,38.7,17.07,40.13,17.07Z"/><path class="cls-2" d="M109.06,61.2a2.33,2.33,0,0,1-.43-1,6.32,6.32,0,0,0-1.18-2.49,4,4,0,0,1-.6-.9,20.16,20.16,0,0,0-3.54-3.67,2.55,2.55,0,0,1-.79-.58,7.93,7.93,0,0,0-1.63-1.06,5.23,5.23,0,0,1-1.16-.68c-.28-.42-10.13-.88-24.1-1.12-4.37-.07-8-.2-8-.29S22,48.77,18.1,48.86c-.85,0-5,.1-9.3.16-8.89.14-8.41,0-8.66,2-.35,2.8,0,16.53.46,16.69.1,0,.18.46.19.93,0,1.68.86,6.44,1.21,6.73a18.87,18.87,0,0,1,.81,2.22,7.72,7.72,0,0,0,.87,2.11c.11,0,.2.13.2.29a12.65,12.65,0,0,0,1.2,2.81,8.23,8.23,0,0,1,.74,1.39,4.25,4.25,0,0,0,.76,1.29,2.78,2.78,0,0,1,.61,1,7.48,7.48,0,0,0,1,1.58,2.27,2.27,0,0,1,.58.83,2.66,2.66,0,0,0,.57.88c.31.35.85,1,1.19,1.43.77,1,5.93,6.26,6.11,6.26a2.83,2.83,0,0,1,.76.56,14.92,14.92,0,0,0,2.64,2,2.16,2.16,0,0,1,.7.5,6.69,6.69,0,0,0,1.9,1.14c.2.07.36.19.36.27a4.86,4.86,0,0,0,1.29.75,12.25,12.25,0,0,1,1.39.72,2.56,2.56,0,0,0,.51.34c.29.16-2.81.25-11.14.32-11.66.1-13.16.2-13.86.9a3.2,3.2,0,0,1-.68.49c-.33.18-.4.45-.4,1.56,0,1.48.49,1.94,2,1.94.34,0,.65.11.69.25.23.68,86.28.68,86.51,0,0-.14.37-.25.73-.25,1.93,0,3-.74,3-2,0-.76-.87-1.91-1.46-1.91-.19,0-.39-.09-.43-.21-.14-.43-10.39-.89-23.05-1.05-1.2,0-2-.06-1.81-.12s.36-.16.36-.25a4.82,4.82,0,0,1,1.39-.75,5.81,5.81,0,0,0,1.47-.76,4.22,4.22,0,0,1,1.08-.68,2.66,2.66,0,0,0,1-.69c0-.1.3-.32.67-.5a5.6,5.6,0,0,0,1.08-.69c.23-.21.78-.65,1.23-1s1-.75,1.16-.93.78-.69,1.32-1.14a68.76,68.76,0,0,0,5.67-5.65c.4-.49.91-1.08,1.14-1.33a8.3,8.3,0,0,0,1.28-2c.16-.31.38-.57.48-.57s.25-.23.32-.5c.18-.74.55-.79,5.44-.82,4.32,0,7.43-.43,7.43-1,0-.09.45-.31,1-.49a5,5,0,0,0,1.39-.69,9.72,9.72,0,0,1,1.21-.87,17.77,17.77,0,0,0,3.32-3.12,10.18,10.18,0,0,0,1.14-1.6,11.42,11.42,0,0,1,.78-1.27,8.94,8.94,0,0,0,1-2.36,1.23,1.23,0,0,1,.3-.53C110.13,72.84,110.13,61.2,109.06,61.2ZM87.42,58.36a26.42,26.42,0,0,1-.27,4.25A3,3,0,0,0,87,64c0,2.19-.85,8.15-1.24,8.65a3.11,3.11,0,0,0-.3.93,26.93,26.93,0,0,1-1.3,4.31,9.38,9.38,0,0,0-1,2.39,3.3,3.3,0,0,1-.46.92,7.84,7.84,0,0,0-.75,1.35,7.59,7.59,0,0,1-.76,1.35A7.42,7.42,0,0,0,80,85.78c-.07.2-.2.36-.29.36s-.41.35-.7.78c-1,1.42-4.85,5.62-5.22,5.62-.13,0-.42.27-.67.62s-.55.61-.69.61a2.21,2.21,0,0,0-.86.59A10.75,10.75,0,0,1,70,95.54a10.51,10.51,0,0,0-1.38.91,5.89,5.89,0,0,1-1.39.72,2.89,2.89,0,0,0-1,.54,5.46,5.46,0,0,1-1.39.71,8.43,8.43,0,0,0-1.49.73,11.48,11.48,0,0,1-2,.71,18,18,0,0,0-2.06.71,23.09,23.09,0,0,1-4.64,1.06,5.78,5.78,0,0,0-1.9.48c-.21.31-11.88.3-12.08,0a2.93,2.93,0,0,0-1.28-.37A31.19,31.19,0,0,1,34,100.59a11.49,11.49,0,0,0-2.11-.74,8.59,8.59,0,0,1-2-.71,5.65,5.65,0,0,0-1.54-.73,6.6,6.6,0,0,1-1.55-.73c0-.08-.3-.27-.67-.41A17.37,17.37,0,0,1,24,96.11a8.61,8.61,0,0,0-1.59-.89c-.11,0-.32-.17-.47-.38a3.2,3.2,0,0,0-.93-.73,3,3,0,0,1-.92-.71,1.53,1.53,0,0,0-.51-.47,24.06,24.06,0,0,1-3.05-2.63c-.23-.27-.87-1-1.4-1.65S14,87.3,13.8,87.07A7.57,7.57,0,0,1,13,85.89a2.45,2.45,0,0,0-.59-.78,4.68,4.68,0,0,1-.75-1.18,8.91,8.91,0,0,0-.77-1.3,32.51,32.51,0,0,1-2.43-4.94,4.34,4.34,0,0,0-.42-1,15.19,15.19,0,0,1-1-3.3,4.7,4.7,0,0,0-.41-1.24c-.29-.21-1-5.36-1.15-8.09a11.63,11.63,0,0,0-.3-2.83,17.76,17.76,0,0,1-.17-3.51v-3.5h82.6Zm17.36,11.87a5.47,5.47,0,0,0-.66,1.58,5.24,5.24,0,0,1-.85,1.81,1.1,1.1,0,0,0-.43.64,1.21,1.21,0,0,1-.41.65,1.34,1.34,0,0,0-.42.6,14,14,0,0,1-3.31,2.64,1.75,1.75,0,0,0-.68.47A13.32,13.32,0,0,1,94.15,80a.43.43,0,0,0-.41.21c-.15.43-3.35.5-3.76.09s-.37-2.49,0-2.76a25,25,0,0,0,1.27-4.77c0-.2.09-.4.2-.43.28-.1,1-5.29,1.17-8.25A9,9,0,0,1,93,61.61a17.41,17.41,0,0,0,.17-3.48V54.66l1.18.19a4.2,4.2,0,0,1,1.29.33,3.38,3.38,0,0,0,.94.41,8.75,8.75,0,0,1,2.58,1.28c2.3,2.05,3.52,3.43,3.79,4.26a.92.92,0,0,0,.43.55,3.93,3.93,0,0,1,.74,1.62,5.82,5.82,0,0,0,.68,1.65,7.31,7.31,0,0,1,.23,2.64A7.4,7.4,0,0,1,104.78,70.23Z"/><path class="cls-2" d="M53.36,13.57c.11,0,.21.2.21.46a11.56,11.56,0,0,0,1.13,3.56,4.74,4.74,0,0,1,.7,1.09,2.68,2.68,0,0,0,.75,1c.17.07.3.21.3.32a7.58,7.58,0,0,0,1.14,1.5A7.46,7.46,0,0,1,58.72,23a1.83,1.83,0,0,0,.48.69,7.64,7.64,0,0,1,1.38,3c0,.17.09.32.2.32s.21.58.21,1.34-.09,1.34-.21,1.34-.2.16-.2.36a8,8,0,0,1-1.09,2.84,7,7,0,0,0-.85,1.34,6.38,6.38,0,0,1-.89,1.37c-.65.52-.59,2.59.09,3.34.91,1,3.48,1.08,3.84.13a.5.5,0,0,1,.41-.31c.44,0,2-1.89,2.47-3a4.8,4.8,0,0,1,.6-1.12c1-.67.93-10.55,0-10.87a.37.37,0,0,1-.2-.34,11.14,11.14,0,0,0-1.33-2.94c-.17-.2-.59-.68-.93-1.05a3.13,3.13,0,0,1-.63-.85,1.49,1.49,0,0,0-.41-.53,1.16,1.16,0,0,1-.41-.66.47.47,0,0,0-.29-.39,3.8,3.8,0,0,1-.86-1.18,7.74,7.74,0,0,0-.72-1.17c-.91-.66-.94-6.4,0-7a3,3,0,0,0,.52-.85,7.91,7.91,0,0,1,1-1.44C63.26,2.44,61-1.4,58,.58a2.21,2.21,0,0,0-.79.83,2.16,2.16,0,0,1-.57.77A4.67,4.67,0,0,0,55.31,4c-.17.37-.39.67-.5.67a12.73,12.73,0,0,0-1.24,3.88c0,.25-.1.45-.21.45a5.68,5.68,0,0,0-.21,2.27A5.72,5.72,0,0,0,53.36,13.57Z"/><path class="cls-2" d="M27,16.83a.4.4,0,0,1,.21.37,9.61,9.61,0,0,0,1.35,2.71c.16.2.85,1,1.53,1.7A10.48,10.48,0,0,1,31.3,23.1a1.25,1.25,0,0,0,.36.52,5.37,5.37,0,0,1,.77,1.6,5.13,5.13,0,0,0,.62,1.38c.32.23.27,4.54,0,4.65a.47.47,0,0,0-.26.43,5.78,5.78,0,0,1-1.39,2.68c-1.37,1.34-1.7,1.87-1.7,2.72s.08,1,1,2a2.41,2.41,0,0,0,3,0,2.39,2.39,0,0,1,.8-.51,8.49,8.49,0,0,0,2.17-2.37,1.45,1.45,0,0,1,.41-.67c.53-.58,1.2-3,1.37-5,.19-2.33-.63-7.63-1.19-7.63a.2.2,0,0,1-.18-.22,11.22,11.22,0,0,0-1.54-3c-.6-.65-1.3-1.51-1.93-2.35a4.29,4.29,0,0,0-.71-.8,7.37,7.37,0,0,1-1.18-2.38.39.39,0,0,0-.21-.37c-.66-.22-.67-5.53,0-5.53a3,3,0,0,0,.61-1A3.4,3.4,0,0,1,33,5.93c.21-.12.39-.32.39-.46a2.14,2.14,0,0,1,.41-.77,1.91,1.91,0,0,0,.41-.87c0-.2.1-.37.21-.37.33,0,.25-2.45-.09-2.79A2.38,2.38,0,0,0,32.23.06c-.12,0-.48.13-.82.2-.78.18-3.2,2.61-3.83,3.83a4.76,4.76,0,0,1-.61,1C25.76,6,25.75,16.43,27,16.83Z"/></g></g></g></svg>