<svg id="svg" xmlns="http://www.w3.org/2000/svg" viewBox="0 0 347.69 109.79"><defs><style>.cls-1{fill:#a48454;fill-rule:evenodd;}.cls-2{fill:#342c1c;}</style></defs><g id="svgg"><path id="path0" class="cls-1" d="M299.07,88.72a6.11,6.11,0,0,0-2.67,2,1.92,1.92,0,0,1-.52.68c-.43.14-.82,2.33-.83,4.55v2.21h-3.72l.06,2.43.05,2.42,1.81.06,1.8.06v14.22l2.73-.06,2.74,0,.05-7.06.05-7.06,2.84,0,2.83-.06.06-2.42,0-2.43h-5.78V96.47c0-2.09,1.57-3.9,2.54-2.93a12.33,12.33,0,0,0,2.55.89,4.49,4.49,0,0,0,1-1.6,11.6,11.6,0,0,1,.92-1.7c2.15-1.45-5.59-3.63-8.58-2.41m-149.79,14.8v13.83l8.09-.07c7.22-.06,8.16-.11,8.71-.43a2.76,2.76,0,0,1,.89-.35c1.18,0,4.16-2.72,4.16-3.78a.45.45,0,0,1,.26-.4c.53-.18.48-4.52-.08-5.65a9.11,9.11,0,0,0-3-3.26l-.49-.15.59-.36c3.12-1.89,3.75-7.76,1.13-10.46-2.32-2.39-4-2.75-13.21-2.75h-7v13.83m95.87,0v13.82l8-.06a69.06,69.06,0,0,0,8.3-.28,7.9,7.9,0,0,1,1.49-.6,8.77,8.77,0,0,0,3.61-2.87c.9-1.15,1.19-5.67.45-7a6.57,6.57,0,0,0-3.18-3.23c-.35-.2-.36-.25-.08-.25,2.34,0,4-5.91,2.57-9-1.77-3.73-4-4.43-14.28-4.43h-6.89v13.83M162.47,95c0,.09.27.23.6.29a2.72,2.72,0,0,1,1.62,3.86c-.34.83-1.7,1.44-3.2,1.44-.48,0-.87.09-.87.2a8,8,0,0,1-2.78.21h-2.79V94.85h3.71a19.29,19.29,0,0,1,3.71.18m95.77,0a1.46,1.46,0,0,0,.73.32c1.42.31,2.06,2.15,1.35,3.86a3.12,3.12,0,0,1-3,1.4c-.47,0-.87.09-.87.2a8,8,0,0,1-2.78.21h-2.78V94.85h3.59a19.09,19.09,0,0,1,3.72.19m-77.05,3a8.54,8.54,0,0,0-4.84,3.72,3.09,3.09,0,0,1-.47.72c-.78.56-1.31,5.72-.83,8.11,1.22,6.06,8.88,9.14,15.32,6.16,2.84-1.32,3-1.76,1.5-3.53-1.79-2.07-1.68-2-3.73-1-3.42,1.67-7.52.31-7.52-2.48,0-.13,2.4-.23,6.65-.26l6.65-.06.06-1.21c.07-1.43-.3-4.12-.59-4.22a.38.38,0,0,1-.19-.34c0-1.77-3.63-5.44-5.4-5.46a.47.47,0,0,1-.43-.26c-.18-.54-4.6-.44-6.18.14m22.47-.37c-.31.06-.57.19-.57.29s-.11.19-.25.2c-1.19,0-3.83,2.11-4.62,3.67a4.21,4.21,0,0,1-.53.87c-.84.62-1.28,6-.69,8.2.53,2,2.43,4.73,3.9,5.51,2.26,1.22,2.27,1.22,4.34,1.3,2.54.1,3.87-.18,5.18-1.12l1-.73.07.73.06.74h5.13V98.14h-5.15v.73c0,.82-.19.9-.74.29-1.11-1.22-4.54-1.94-7.15-1.5m25.62.36a7.51,7.51,0,0,0-1.73,1c-.75.68-.75.68-.75-.18v-.73h-5.15v19.19l2.73-.06,2.73,0,.11-6.09c.13-7.66.4-8.27,3.66-8.27,2.9,0,3.22.79,3.35,8.38l.1,6,2.73,0,2.73.06v-6.76c0-7.44-.12-8.51-1.19-10A8.2,8.2,0,0,0,236,98.35a3,3,0,0,1-.86-.34c-1.09-.61-4.48-.6-5.87,0m48.14-.21c-.34.16-1.07.46-1.62.66-4.59,1.67-6.76,8.91-4.26,14.21a9.19,9.19,0,0,0,3.59,3.83c.41.15.75.34.75.42,0,.47,2.76.85,5.51.76,4.12-.13,8.32-2.16,7.12-3.43-.2-.21-.87-1-1.47-1.65-1-1.16-1.69-1.54-2-1.1a7.16,7.16,0,0,1-1.31.77c-2.62,1.33-5.81.66-7-1.46-.79-1.4-1.14-1.32,6.18-1.38l6.65-.06v-1.85c0-2-.41-4.31-.81-4.71a3.59,3.59,0,0,1-.5-.91,8.86,8.86,0,0,0-4-3.56,4.38,4.38,0,0,1-1.12-.49c-.46-.37-4.94-.41-5.69,0m38.2-.15c-.31,0-.57.17-.57.25s-.42.27-.93.42a9,9,0,0,0-4.43,3.44,12.21,12.21,0,0,1-.66,1.12c-1.24,1.78-1.26,8.77,0,9.66a2.64,2.64,0,0,1,.47.71,10.53,10.53,0,0,0,5.39,4.15c2.05.61,7.75.27,8.23-.49a3.22,3.22,0,0,1,.86-.49c1.83-.76,4.12-3.86,4.69-6.33.41-1.76.14-5.76-.4-5.94a.41.41,0,0,1-.2-.37,7.36,7.36,0,0,0-1.15-2.35c-1.19-1.35-1.5-1.65-1.7-1.65a.56.56,0,0,1-.39-.29,7.23,7.23,0,0,0-2.75-1.35,1.08,1.08,0,0,1-.57-.25,22.9,22.9,0,0,0-5.86-.24m25,0a1.3,1.3,0,0,0-.62.23,7.09,7.09,0,0,1-1.07.6,3.15,3.15,0,0,0-1.06.72c-.06.14-.11,0-.12-.42l0-.67h-5.36v19.18h5.55l.06-6,.06-6,.58-.83c.93-1.34,2.41-1.75,4.78-1.3,1.66.31,1.55.42,1.88-1.9.44-3.08.41-3.38-.36-3.54a21.35,21.35,0,0,0-4.3,0m13.81,0c-4.15,1.51-6.43,3.77-6.92,6.84-.08.48-.21.87-.3.87a9.64,9.64,0,0,0-.19,2.37,6.68,6.68,0,0,0,.17,2.37c.11,0,.26.39.34.87a7.11,7.11,0,0,0,1.27,3c.21.21.53.57.71.78a7.38,7.38,0,0,0,2.16,1.74,1.17,1.17,0,0,1,.6.33c1.31,1.31,7.85,1.21,10.51-.16,3-1.54,3-1.64,1.12-3.73-1.56-1.71-1.78-1.81-2.63-1.21-1.66,1.17-5.39,1.76-6,1a2.9,2.9,0,0,0-.73-.51,2.41,2.41,0,0,1-.9-.92,5,5,0,0,0-.6-.89c-.83-.83-.59-.87,6.36-.92l6.65-.06v-1.85c0-4.4-2-8-5.05-9.1a13.48,13.48,0,0,1-1.34-.55,20.85,20.85,0,0,0-5.26-.23m-168.26,5.18a4.48,4.48,0,0,1,2,2.38l.14.56h-3.83c-4.27,0-4.11.07-3.37-1.43a4,4,0,0,1,5.08-1.51m96.05.18a3,3,0,0,1,1.3,1.39c.65,1.43.8,1.37-3.42,1.37s-4.05,0-3.42-1.19a3.89,3.89,0,0,1,5.54-1.57m76.44-.06a3.24,3.24,0,0,1,1.24,1.28,3.38,3.38,0,0,0,.56.89.41.41,0,0,1,.16.36c0,.24-.68.29-3.92.29-4.08,0-4.42-.08-3.63-.87a2,2,0,0,0,.41-.7c.49-1.54,3.42-2.25,5.18-1.25m-149.44.43a3.26,3.26,0,0,1,1,.87,7.87,7.87,0,0,0,.63.78c.83.85.9,5.07.08,5.07-.08,0-.26.28-.4.61-.49,1.18-4,2.64-4.44,1.87a.56.56,0,0,0-.45-.21c-2.13,0-3.84-3.75-3-6.49a4.54,4.54,0,0,1,6.55-2.5m111.16-.14c4,1.89,3.21,9.13-1,9.13-.22,0-.39.09-.39.21s-.28.2-.62.2-.62-.08-.62-.18-.31-.23-.7-.29c-1.48-.24-3.22-2.12-3.22-3.49,0-.2-.09-.37-.2-.37s-.28-1.28,0-1.55a4,4,0,0,0,.42-1.06c.68-2.39,4-3.73,6.39-2.6M164,106.5a2.71,2.71,0,0,1,1.15,4.09c-.85,1.24-1.47,1.4-6.15,1.52l-4,.1v-6.27l4.07.07c3.56.07,4.18.13,4.9.49m95.57-.07a2.8,2.8,0,0,1,.22,5.18c-.81.36-1.49.43-4.91.51l-4,.1v-6.28l4,.08c3,.06,4.14.16,4.69.41" transform="translate(-18.39 -39.83)"/><path class="cls-2" d="M58.52,56.91A2.94,2.94,0,0,1,59.08,58a4.86,4.86,0,0,0,.87,1.5,1.67,1.67,0,0,1,.46.6,5.53,5.53,0,0,0,1.29,1.76,3.21,3.21,0,0,1,.68.87,4,4,0,0,0,.68,1,6.45,6.45,0,0,1,.85,1.5,5,5,0,0,0,.7,1.29c.34.21.32,3.91,0,4a.4.4,0,0,0-.26.34,9.68,9.68,0,0,1-1.46,2.83,6.72,6.72,0,0,0-1.22,2.69c0,.21-.09.38-.21.38s-.2.28-.2.62.09.62.2.62.21.16.21.36c0,1,.6,1.35,1.89,1.23s1.53-.28,2.89-1.69a7.88,7.88,0,0,0,1.83-2.48,5.78,5.78,0,0,1,.66-1.15c1.17-.87,1.16-10.64,0-11.52a8.14,8.14,0,0,1-.71-1.3,3.64,3.64,0,0,0-.73-1.18c-.08,0-.27-.28-.42-.61a7.19,7.19,0,0,0-1-1.44,18,18,0,0,1-2.44-3,3.1,3.1,0,0,0-.45-.7c-1-.71-1-6.4,0-6.4.09,0,.31-.37.49-.82a4.63,4.63,0,0,1,.7-1.2,8.47,8.47,0,0,0,1.21-1.88,2,2,0,0,1,.51-.65,1.72,1.72,0,0,0,.27-1.08c0-1.87-2.25-2.89-4.14-1.84a7.63,7.63,0,0,0-3.08,3.33,3.84,3.84,0,0,1-.59,1C57,46.28,57.1,56.91,58.52,56.91Z" transform="translate(-18.39 -39.83)"/><path class="cls-2" d="M127.45,101a2.24,2.24,0,0,1-.42-1,6.47,6.47,0,0,0-1.18-2.48,4.32,4.32,0,0,1-.61-.91A20.48,20.48,0,0,0,121.71,93a2.52,2.52,0,0,1-.8-.57,8.07,8.07,0,0,0-1.63-1.07,5.23,5.23,0,0,1-1.16-.68c-.28-.42-10.13-.87-24.1-1.11-4.36-.08-8-.21-8-.29s-45.61-.67-49.49-.57l-9.29.16c-8.9.14-8.42,0-8.67,2-.35,2.8,0,16.53.46,16.69.1,0,.19.46.19.93,0,1.69.86,6.45,1.21,6.74a17.61,17.61,0,0,1,.81,2.21,7.55,7.55,0,0,0,.88,2.12c.1,0,.19.12.19.28a12.65,12.65,0,0,0,1.2,2.81,8.71,8.71,0,0,1,.74,1.39,4.75,4.75,0,0,0,.76,1.29,2.9,2.9,0,0,1,.62,1,6.86,6.86,0,0,0,1.05,1.59,2.19,2.19,0,0,1,.58.83,2.56,2.56,0,0,0,.56.87c.31.36.85,1,1.19,1.43.77,1,5.93,6.26,6.12,6.26a3.2,3.2,0,0,1,.75.57,14.76,14.76,0,0,0,2.65,2,2.63,2.63,0,0,1,.7.5,6.71,6.71,0,0,0,1.89,1.15c.2.06.36.18.36.26a4.58,4.58,0,0,0,1.29.75,9.52,9.52,0,0,1,1.39.73,3.1,3.1,0,0,0,.51.34c.29.16-2.8.24-11.14.32-11.66.1-13.16.2-13.85.89a3.59,3.59,0,0,1-.69.5c-.33.17-.39.44-.39,1.55,0,1.48.48,2,2,2,.34,0,.65.11.7.24.22.69,86.27.68,86.5,0,0-.13.37-.25.73-.25,1.93,0,3-.73,3-2,0-.76-.87-1.9-1.45-1.9a.48.48,0,0,1-.44-.22c-.14-.43-10.38-.89-23.05-1a6.17,6.17,0,0,1-1.81-.12c.2,0,.37-.17.37-.25a4.42,4.42,0,0,1,1.39-.75,6.7,6.7,0,0,0,1.46-.76,4.35,4.35,0,0,1,1.08-.69,2.66,2.66,0,0,0,1-.69c0-.1.31-.32.67-.5a5.11,5.11,0,0,0,1.09-.69c.22-.21.78-.65,1.23-1s1-.76,1.15-.93.78-.69,1.33-1.14a72.11,72.11,0,0,0,5.67-5.66c.39-.48.9-1.08,1.13-1.32a8.12,8.12,0,0,0,1.28-2.05c.16-.31.38-.56.49-.56s.24-.23.31-.51c.18-.74.55-.79,5.45-.82,4.32,0,7.42-.42,7.42-1a2.44,2.44,0,0,1,1-.48,5.06,5.06,0,0,0,1.39-.7,9.53,9.53,0,0,1,1.21-.86,18,18,0,0,0,3.32-3.13,10.18,10.18,0,0,0,1.14-1.6,13.19,13.19,0,0,1,.78-1.27,9,9,0,0,0,1-2.35,1.12,1.12,0,0,1,.3-.53C128.53,112.68,128.52,101,127.45,101ZM105.81,98.2a26.36,26.36,0,0,1-.27,4.24,3.06,3.06,0,0,0-.18,1.38c0,2.2-.85,8.16-1.24,8.65a3.71,3.71,0,0,0-.3.93,27.71,27.71,0,0,1-1.29,4.32,8.92,8.92,0,0,0-1,2.38,3.29,3.29,0,0,1-.46.93,8.33,8.33,0,0,0-.75,1.34,7.58,7.58,0,0,1-.76,1.36,7.72,7.72,0,0,0-1.12,1.89c-.06.2-.2.36-.29.36s-.41.35-.7.77c-1,1.42-4.85,5.62-5.22,5.62-.12,0-.42.28-.66.62s-.56.62-.7.62a2.15,2.15,0,0,0-.86.58,9.54,9.54,0,0,1-1.64,1.18,11.65,11.65,0,0,0-1.38.91,5.36,5.36,0,0,1-1.39.72,3.3,3.3,0,0,0-1,.54,5.86,5.86,0,0,1-1.4.72,8.85,8.85,0,0,0-1.49.73,11.91,11.91,0,0,1-2,.7,15.41,15.41,0,0,0-2.06.72A22.73,22.73,0,0,1,73,141.47a5.87,5.87,0,0,0-1.9.48c-.21.31-11.87.3-12.08,0a2.74,2.74,0,0,0-1.28-.37,29.58,29.58,0,0,1-5.35-1.15,11.27,11.27,0,0,0-2.12-.73,8.17,8.17,0,0,1-2-.72,6.6,6.6,0,0,0-1.55-.73,5.65,5.65,0,0,1-1.54-.73c0-.08-.31-.26-.68-.41a18.21,18.21,0,0,1-2-1.16,9.05,9.05,0,0,0-1.58-.89c-.12,0-.33-.17-.48-.38a3.13,3.13,0,0,0-.92-.72,3.06,3.06,0,0,1-.93-.72,1.46,1.46,0,0,0-.5-.46A24.24,24.24,0,0,1,35,130.13c-.24-.26-.87-1-1.41-1.65s-1.15-1.35-1.37-1.57a8.46,8.46,0,0,1-.85-1.19,2.33,2.33,0,0,0-.59-.77,4.85,4.85,0,0,1-.75-1.19,9.56,9.56,0,0,0-.77-1.3,32.82,32.82,0,0,1-2.43-4.93,4.5,4.5,0,0,0-.42-1,15.41,15.41,0,0,1-1.05-3.29,4.21,4.21,0,0,0-.41-1.24c-.29-.22-1-5.37-1.14-8.09a11.46,11.46,0,0,0-.31-2.84,18.66,18.66,0,0,1-.17-3.5V94h82.6Zm17.36,11.86a5.69,5.69,0,0,0-.65,1.59,5.24,5.24,0,0,1-.86,1.8,1.19,1.19,0,0,0-.42.64,1.24,1.24,0,0,1-.41.65,1.4,1.4,0,0,0-.43.6,14,14,0,0,1-3.31,2.65,1.65,1.65,0,0,0-.68.47,13.32,13.32,0,0,1-3.87,1.33.45.45,0,0,0-.41.21c-.14.43-3.35.51-3.76.09s-.37-2.49,0-2.75a25.09,25.09,0,0,0,1.27-4.78.47.47,0,0,1,.2-.43c.28-.09,1-5.28,1.18-8.25a9.23,9.23,0,0,1,.3-2.44,16.88,16.88,0,0,0,.18-3.47V94.49l1.18.19A4.2,4.2,0,0,1,114,95a3.18,3.18,0,0,0,.93.42,8.73,8.73,0,0,1,2.59,1.27c2.29,2.06,3.52,3.43,3.78,4.26a1,1,0,0,0,.43.56,4,4,0,0,1,.75,1.61,5.78,5.78,0,0,0,.67,1.65,7.14,7.14,0,0,1,.23,2.64A7.06,7.06,0,0,1,123.17,110.06Z" transform="translate(-18.39 -39.83)"/><path class="cls-2" d="M71.75,53.4c.12,0,.21.21.21.46a11.47,11.47,0,0,0,1.13,3.56,5.13,5.13,0,0,1,.7,1.1,2.87,2.87,0,0,0,.75,1c.17.06.31.2.31.32A7.86,7.86,0,0,0,76,61.33a7.78,7.78,0,0,1,1.13,1.5,1.85,1.85,0,0,0,.48.7,7.6,7.6,0,0,1,1.38,3c0,.18.09.32.2.32s.21.59.21,1.34-.09,1.34-.21,1.34-.2.17-.2.37a8.15,8.15,0,0,1-1.08,2.83A6.38,6.38,0,0,0,77,74a6.45,6.45,0,0,1-.9,1.38c-.65.52-.59,2.59.09,3.33.91,1,3.48,1.09,3.85.13a.48.48,0,0,1,.4-.3c.45,0,2-1.9,2.48-3a4.54,4.54,0,0,1,.59-1.11c1-.68.93-10.56,0-10.88a.36.36,0,0,1-.21-.34A11.29,11.29,0,0,0,82,60.26l-.93-1a3.32,3.32,0,0,1-.63-.84,1.25,1.25,0,0,0-.41-.53,1.23,1.23,0,0,1-.41-.66.44.44,0,0,0-.29-.39,3.67,3.67,0,0,1-.85-1.18,7.77,7.77,0,0,0-.73-1.18c-.91-.66-.94-6.4,0-7a3.29,3.29,0,0,0,.53-.84,7.57,7.57,0,0,1,1-1.45c2.48-2.88.18-6.72-2.83-4.73a2.22,2.22,0,0,0-.79.83A1.92,1.92,0,0,1,75,42a4.71,4.71,0,0,0-1.29,1.86c-.16.36-.39.67-.5.67A13,13,0,0,0,72,48.41c0,.25-.09.46-.21.46a5.78,5.78,0,0,0-.2,2.26A5.81,5.81,0,0,0,71.75,53.4Z" transform="translate(-18.39 -39.83)"/><path class="cls-2" d="M45.35,56.66a.4.4,0,0,1,.22.37,9.59,9.59,0,0,0,1.34,2.72c.16.19.86,1,1.54,1.69a10,10,0,0,1,1.24,1.5,1.24,1.24,0,0,0,.36.51,5.59,5.59,0,0,1,.78,1.6,5.19,5.19,0,0,0,.61,1.39c.32.22.27,4.54,0,4.64a.47.47,0,0,0-.26.43,5.86,5.86,0,0,1-1.39,2.69c-1.36,1.33-1.7,1.86-1.7,2.71s.08,1,1,2a2.42,2.42,0,0,0,3,0,2.23,2.23,0,0,1,.81-.52A8.61,8.61,0,0,0,55.05,76a1.45,1.45,0,0,1,.41-.67c.53-.57,1.2-3,1.37-5,.19-2.33-.63-7.63-1.19-7.63a.2.2,0,0,1-.18-.22,11.37,11.37,0,0,0-1.54-3A29.68,29.68,0,0,1,52,57.12a4.29,4.29,0,0,0-.71-.8,7.37,7.37,0,0,1-1.18-2.38.4.4,0,0,0-.21-.37c-.65-.22-.67-5.53,0-5.53a3,3,0,0,0,.62-1,3.26,3.26,0,0,1,.86-1.25c.22-.11.4-.32.4-.46a1.85,1.85,0,0,1,.4-.76,1.84,1.84,0,0,0,.41-.88c0-.2.1-.36.21-.36.33,0,.26-2.46-.08-2.8a2.35,2.35,0,0,0-2.08-.6c-.11,0-.48.13-.82.2-.77.17-3.2,2.6-3.82,3.83a6,6,0,0,1-.61,1C44.16,45.8,44.15,56.26,45.35,56.66Z" transform="translate(-18.39 -39.83)"/></g></svg>